<svg xmlns="http://www.w3.org/2000/svg" xmlns:xlink="http://www.w3.org/1999/xlink" width="500" zoomAndPan="magnify" viewBox="0 0 375 374.999991" height="500" preserveAspectRatio="xMidYMid meet" version="1.0"><defs><clipPath id="508837c82d"><path d="M 102.203125 145.507812 L 121.757812 145.507812 L 121.757812 165.0625 L 102.203125 165.0625 Z M 102.203125 145.507812 " clip-rule="nonzero"/></clipPath><clipPath id="2dfb5eed26"><path d="M 111.980469 145.507812 C 106.582031 145.507812 102.203125 149.886719 102.203125 155.285156 C 102.203125 160.683594 106.582031 165.0625 111.980469 165.0625 C 117.378906 165.0625 121.757812 160.683594 121.757812 155.285156 C 121.757812 149.886719 117.378906 145.507812 111.980469 145.507812 Z M 111.980469 145.507812 " clip-rule="nonzero"/></clipPath></defs><path fill="#2575fc" d="M 238.953125 322.605469 C 258.792969 341.917969 292.769531 349.203125 321.761719 333.578125 C 343.421875 321.886719 362.589844 297.878906 360.242188 263.855469 C 358.660156 240.804688 318.835938 175.058594 296.316406 138.113281 C 279.304688 110.175781 265.117188 79.890625 241.109375 57.03125 C 191.226562 9.589844 129.503906 37.191406 109.136719 88.660156 C 126.246094 79.410156 138.992188 73.230469 169.421875 78.453125 C 224.960938 87.988281 253.332031 163.65625 279.160156 208.699219 C 285.4375 219.625 291.570312 230.359375 298.230469 241.765625 C 302.402344 248.90625 307.144531 257.289062 309.109375 265.292969 C 314.523438 287.382812 292.769531 299.222656 274.128906 283.550781 C 249.6875 262.992188 225.007812 206.542969 213.222656 185.554688 C 194.050781 151.339844 171.003906 115.828125 121.597656 124.167969 C 72.238281 132.554688 52.398438 184.019531 25.660156 231.507812 C -5.34375 286.472656 36.96875 349.632812 98.882812 340.960938 C 117.09375 338.421875 129.648438 330.273438 139.421875 319.585938 C 146.085938 312.351562 160.125 291.601562 163.765625 282.257812 L 135.636719 233.617188 C 135.160156 234.050781 134.917969 234.433594 133.480469 236.15625 L 114.792969 267.882812 C 93.613281 304.109375 63.710938 295.195312 65.675781 270.851562 C 67.0625 252.835938 84.699219 228.539062 90.160156 219.242188 C 106.308594 191.640625 130.75 147.121094 159.835938 192.695312 C 165.15625 201.082031 171.003906 212.246094 174.933594 218.953125 C 178.71875 225.375 181.6875 230.789062 185.378906 237.261719 C 202.535156 264.09375 216.957031 301.1875 238.953125 322.605469 Z M 238.953125 322.605469 " fill-opacity="1" fill-rule="evenodd"/><g clip-path="url(#508837c82d)"><g clip-path="url(#2dfb5eed26)"><path fill="#2575fc" d="M 102.203125 145.507812 L 121.757812 145.507812 L 121.757812 165.0625 L 102.203125 165.0625 Z M 102.203125 145.507812 " fill-opacity="1" fill-rule="nonzero"/></g></g></svg>